<?xml version="1.0" encoding="utf-8"?>
<!-- Generator: Adobe Illustrator 23.0.1, SVG Export Plug-In . SVG Version: 6.00 Build 0)  -->
<svg version="1.1" id="Layer_1" xmlns="http://www.w3.org/2000/svg" xmlns:xlink="http://www.w3.org/1999/xlink" x="0px" y="0px"
	 viewBox="0 0 274.52 130.71" style="enable-background:new 0 0 274.52 130.71;" xml:space="preserve">
<style type="text/css">
	.st0{fill:#34DED6;}
	.st1{fill:#FDCE39;}
	.st2{fill:#3977FE;}
	.st3{fill:#FFFFFF;}
	.st4{font-family:'Roboto', sans-serif;}
	.st5{font-size:56.1659px;}
</style>
<path class="st0" d="M274.71,65.36c0,18.05-7.32,34.38-19.14,46.21c-11.83,11.82-28.16,19.14-46.21,19.14h-76.55l-0.35-0.31
	L15.17,23.48c1.26-1.51,2.58-2.95,3.97-4.34C30.97,7.31,47.31,0,65.36,0h144c18.01,0,34.32,7.28,46.14,19.07
	C267.37,30.91,274.71,47.27,274.71,65.36z"/>
<path class="st1" d="M132.81,130.71H65.36C29.26,130.71,0,101.45,0,65.36c0-15.93,5.7-30.54,15.17-41.88L132.81,130.71z"/>
<polygon class="st1" points="144.46,130.71 120.46,130.71 120.46,106.71 132.46,108.42 "/>
<path class="st2" d="M274.71,65.36c0,18.05-7.32,34.38-19.14,46.21c-11.83,11.82-28.16,19.14-46.21,19.14h-76.55l-0.35-0.31
	L255.5,19.07C267.37,30.91,274.71,47.27,274.71,65.36z"/>
<path class="st3" d="M202.66,119.27H72.96c-29.78,0-53.92-24.14-53.92-53.92v0c0-29.78,24.14-53.92,53.92-53.92h129.7
	c29.78,0,53.92,24.14,53.92,53.92v0C256.57,95.13,232.43,119.27,202.66,119.27z"/>
<text transform="matrix(1 0 0 1 100.7131 82.2381)" class="st4 st5">SELL</text>
<path d="M58.71,86.57L58.71,86.57c-1.18,0-2.14-0.96-2.14-2.14V41.14c0-1.18,0.96-2.14,2.14-2.14h0c1.18,0,2.14,0.96,2.14,2.14
	v43.29C60.86,85.61,59.9,86.57,58.71,86.57z"/>
<path d="M82.5,62.78L82.5,62.78c0,1.18-0.96,2.14-2.14,2.14H37.07c-1.18,0-2.14-0.96-2.14-2.14v0c0-1.18,0.96-2.14,2.14-2.14h43.29
	C81.54,60.64,82.5,61.6,82.5,62.78z"/>
</svg>
